<?xml version="1.0" standalone="no"?>
<!DOCTYPE svg PUBLIC "-//W3C//DTD SVG 20010904//EN"
 "http://www.w3.org/TR/2001/REC-SVG-20010904/DTD/svg10.dtd">
<svg version="1.0" xmlns="http://www.w3.org/2000/svg"
 width="1000pt" height="1000pt" viewBox="0 0 508.000000 508.000000"
 preserveAspectRatio="xMidYMid meet">
<metadata>
Created by potrace 1.16, written by Peter Selinger 2001-2019
</metadata>
<g transform="translate(0.000000,508.000000) scale(0.100000,-0.100000)"
fill="#000000" stroke="none">
<path d="M791 3359 c-62 -5 -76 -9 -91 -29 -36 -48 -55 -164 -42 -265 11 -91
19 -94 328 -102 308 -7 316 -5 334 83 13 64 10 238 -5 253 -37 37 -354 73
-524 60z m259 -90 c178 -14 180 -15 180 -81 0 -58 -14 -126 -27 -138 -8 -8
-283 3 -390 15 -45 5 -53 10 -63 36 -11 27 -7 150 7 172 6 10 136 9 293 -4z"/>
<path d="M2918 3313 c-10 -3 -29 -34 -47 -81 -56 -146 -73 -248 -52 -305 11
-29 84 -58 221 -88 52 -11 153 -38 223 -60 171 -52 202 -57 228 -33 27 25 44
66 79 199 35 128 39 204 13 227 -92 80 -537 175 -665 141z m215 -104 c111 -22
260 -63 315 -86 l35 -14 -5 -73 c-3 -48 -13 -91 -30 -128 l-26 -56 -99 18
c-137 25 -266 58 -340 87 -59 24 -63 27 -63 57 0 39 25 128 51 179 23 44 25
44 162 16z"/>
<path d="M4120 3078 c-28 -14 -121 -96 -245 -218 -228 -222 -413 -381 -593
-508 -68 -48 -151 -106 -183 -130 -66 -47 -149 -152 -149 -187 0 -26 56 -112
109 -168 47 -49 187 -120 238 -120 27 0 67 16 142 57 190 104 296 185 495 374
72 68 178 164 236 213 117 98 170 156 248 272 43 65 52 86 52 123 0 93 -103
248 -193 290 -65 30 -100 30 -157 2z m143 -125 c51 -57 105 -132 112 -153 12
-37 -26 -89 -138 -187 -61 -54 -190 -174 -286 -267 -189 -181 -321 -291 -508
-423 -107 -76 -121 -83 -153 -77 -77 13 -169 83 -210 159 -12 23 -11 27 11 51
13 14 132 113 264 220 419 338 565 463 618 531 11 13 63 63 115 109 108 97
120 99 175 37z"/>
<path d="M1914 3022 c-27 -31 -83 -99 -123 -150 -79 -101 -437 -448 -660 -641
-141 -122 -231 -214 -231 -236 0 -7 16 -44 36 -83 39 -78 88 -127 168 -167
103 -51 167 -29 361 126 292 233 632 606 776 852 34 58 39 72 33 105 -11 61
-40 108 -99 159 -72 62 -129 93 -174 93 -31 0 -43 -8 -87 -58z m134 -66 c57
-29 96 -68 117 -120 16 -38 16 -38 -18 -90 -191 -287 -582 -692 -861 -891 -65
-46 -69 -47 -105 -36 -21 6 -59 29 -85 52 -51 45 -104 126 -90 138 5 5 77 62
159 128 316 253 585 515 735 715 52 70 96 128 98 128 1 0 24 -11 50 -24z"/>
<path d="M698 2845 l-46 -15 -16 -70 c-24 -106 -31 -212 -16 -264 10 -37 18
-47 49 -59 78 -31 158 -41 326 -42 195 0 216 6 235 72 18 66 23 194 11 255
-15 68 -39 90 -127 113 -88 23 -356 29 -416 10z m399 -101 c41 -6 42 -8 49
-52 7 -44 -9 -182 -23 -204 -12 -21 -267 1 -386 33 l-40 11 7 76 c3 42 11 95
17 116 l11 39 161 -6 c89 -4 181 -9 204 -13z"/>
</g>
</svg>
