<?xml version="1.0" standalone="no"?>
<!DOCTYPE svg PUBLIC "-//W3C//DTD SVG 20010904//EN"
 "http://www.w3.org/TR/2001/REC-SVG-20010904/DTD/svg10.dtd">
<svg version="1.0" xmlns="http://www.w3.org/2000/svg"
 width="3000.000000pt" height="3000.000000pt" viewBox="0 0 3000.000000 3000.000000"
 preserveAspectRatio="xMidYMid meet">
<metadata>
Created by potrace 1.11, written by Peter Selinger 2001-2013
</metadata>
<g transform="translate(0.000000,3000.000000) scale(0.100000,-0.100000)"
fill="#000000" stroke="none">
<path d="M1867 21534 c-1 -1 -69 -5 -152 -9 -82 -3 -168 -8 -189 -10 -49 -4
-189 -18 -196 -20 -3 0 -32 -5 -65 -9 -126 -16 -293 -62 -357 -98 -48 -27 -94
-67 -108 -95 -8 -15 -33 -59 -55 -98 -85 -146 -185 -397 -209 -522 -2 -10 -9
-36 -15 -58 -13 -49 -32 -166 -45 -270 -4 -27 -9 -59 -11 -70 -2 -11 -6 -54
-10 -95 -24 -295 -20 -705 10 -1025 30 -313 29 -309 67 -359 124 -161 305
-264 508 -291 25 -3 56 -8 70 -10 41 -7 230 -15 480 -20 225 -5 286 -8 430
-20 36 -3 94 -8 130 -10 36 -3 94 -7 130 -9 138 -11 393 -23 635 -31 262 -9
383 -13 605 -22 298 -11 1106 -4 1250 12 46 6 176 23 219 30 140 23 367 99
411 138 80 70 136 184 181 371 8 33 45 261 64 396 4 25 11 65 15 90 5 25 7
275 5 555 -3 485 -5 549 -20 690 -4 33 -9 80 -11 105 -8 82 -42 231 -59 256
-9 14 -24 28 -33 31 -9 3 -41 16 -70 29 -29 13 -58 24 -65 24 -7 0 -17 4 -22
9 -15 12 -253 86 -390 120 -112 28 -142 34 -205 46 -14 3 -47 9 -75 15 -27 5
-66 12 -85 15 -19 3 -42 8 -50 10 -8 2 -33 6 -55 10 -22 3 -67 10 -100 15
-132 20 -360 50 -415 55 -43 4 -133 14 -180 20 -19 3 -63 7 -97 10 -35 3 -77
7 -95 9 -18 3 -69 8 -113 11 -44 4 -93 8 -110 10 -16 2 -73 7 -125 10 -52 4
-111 8 -130 10 -19 2 -80 6 -135 10 -55 3 -120 8 -145 10 -25 3 -92 7 -150 10
-58 3 -134 9 -170 12 -58 4 -688 11 -693 7z m-212 -658 c143 -4 303 -9 355
-11 52 -2 158 -7 235 -10 140 -5 235 -10 395 -20 47 -3 123 -7 170 -10 92 -5
228 -14 300 -20 25 -2 86 -7 135 -10 50 -3 108 -8 130 -10 22 -3 72 -7 110
-10 94 -7 182 -15 225 -20 19 -2 67 -7 105 -10 39 -3 88 -8 110 -10 22 -2 72
-7 110 -10 39 -3 88 -8 110 -10 51 -6 129 -13 225 -20 41 -3 89 -8 105 -10 17
-2 68 -7 115 -10 104 -8 172 -37 232 -97 75 -75 112 -191 86 -272 -6 -17 -11
-105 -13 -196 -2 -91 -6 -187 -9 -215 -2 -27 -8 -77 -11 -110 -18 -171 -98
-504 -163 -680 l-18 -50 -95 1 c-112 1 -466 16 -974 40 -55 2 -147 6 -205 9
-145 7 -256 13 -545 30 -49 3 -128 7 -175 10 -156 9 -264 15 -327 20 -113 9
-187 14 -278 20 -49 4 -108 8 -130 10 -22 2 -76 7 -120 10 -44 3 -98 7 -120
10 -22 2 -71 7 -110 10 -38 3 -88 8 -110 10 -22 2 -67 7 -100 11 -70 7 -104
33 -166 128 -74 113 -109 249 -111 431 -1 101 7 241 17 293 2 11 6 47 10 79 3
32 10 87 16 123 5 36 12 76 14 90 2 14 6 43 10 65 3 22 7 58 10 80 2 22 6 54
9 70 2 17 8 53 11 80 4 28 8 59 10 70 1 11 6 43 10 70 4 28 9 53 10 56 2 3 34
4 72 3 37 -1 185 -5 328 -8z"/>
<path d="M18358 21195 c-2 -1 -39 -5 -83 -9 -134 -10 -175 -16 -280 -40 -77
-18 -147 -41 -177 -57 -38 -20 -251 -495 -357 -794 -24 -66 -47 -129 -51 -140
-19 -43 -111 -339 -155 -494 -76 -272 -157 -626 -180 -786 -3 -22 -10 -66 -16
-98 -5 -31 -7 -76 -4 -100 3 -23 8 -53 10 -67 7 -46 16 -125 20 -175 15 -158
33 -248 73 -369 l27 -79 85 -40 c47 -23 87 -42 90 -42 3 -1 14 -6 25 -10 189
-82 533 -203 780 -274 70 -20 332 -88 370 -95 11 -3 74 -16 140 -31 149 -33
120 -27 320 -64 397 -74 544 -107 755 -171 74 -22 142 -42 150 -44 12 -3 519
-169 720 -236 268 -89 732 -221 1180 -337 192 -49 223 -55 287 -50 132 10 241
83 348 232 73 102 114 180 210 400 27 62 126 376 164 520 54 203 68 256 97
350 13 44 24 83 24 87 1 4 7 26 15 49 9 23 17 51 20 63 2 12 11 46 20 76 59
199 138 533 174 735 6 33 13 69 15 80 2 11 7 45 11 75 4 30 9 64 11 75 12 61
19 162 17 255 -4 225 -86 409 -233 525 -178 140 -578 322 -1055 479 -421 140
-647 199 -1080 281 -99 19 -191 37 -205 40 -14 3 -41 8 -60 11 -19 3 -42 7
-50 9 -14 4 -401 78 -465 89 -16 3 -41 7 -55 10 -21 4 -148 26 -240 41 -94 16
-264 41 -330 50 -217 29 -313 40 -440 50 -41 4 -91 8 -110 11 -40 5 -527 13
-532 9z m287 -719 c89 -6 110 -8 210 -22 28 -4 59 -8 70 -9 101 -13 392 -64
515 -90 14 -3 61 -12 105 -21 44 -8 90 -17 103 -20 215 -43 840 -194 1117
-269 94 -26 193 -53 220 -60 50 -12 104 -28 355 -105 74 -23 144 -44 155 -47
11 -2 29 -8 40 -13 11 -5 74 -27 140 -49 220 -74 365 -131 487 -191 95 -47
101 -52 104 -82 12 -94 4 -474 -11 -578 -2 -14 -7 -49 -10 -79 -4 -30 -9 -63
-11 -75 -2 -11 -6 -38 -9 -61 -21 -146 -122 -482 -197 -655 -43 -98 -133 -277
-185 -369 l-56 -97 -216 38 c-119 20 -232 40 -251 43 -20 3 -47 8 -60 10 -14
3 -63 12 -110 20 -47 8 -97 17 -112 20 -16 3 -38 7 -50 9 -13 2 -61 11 -108
20 -47 8 -96 17 -110 20 -22 4 -205 38 -270 51 -14 3 -48 9 -76 15 -28 6 -64
13 -80 16 -16 3 -57 11 -92 19 -34 8 -75 17 -90 20 -15 2 -89 18 -163 35 -165
38 -149 35 -239 55 -69 16 -244 61 -445 115 -187 50 -678 206 -770 245 -16 7
-59 23 -95 35 -36 13 -69 27 -75 32 -5 4 -15 8 -22 8 -7 0 -35 9 -61 21 -55
24 -63 28 -157 67 -38 16 -107 47 -153 68 l-83 38 6 60 c10 106 24 226 30 255
1 9 8 50 14 91 85 533 265 1036 503 1401 44 66 54 76 77 73 14 -1 67 -5 116
-8z"/>
<path d="M27738 19505 c-2 -2 -31 -6 -65 -9 -100 -10 -243 -60 -443 -153 -41
-19 -91 -42 -110 -51 -19 -9 -73 -44 -120 -77 -47 -34 -116 -83 -155 -110
-319 -221 -587 -449 -731 -622 -27 -32 -129 -137 -228 -233 -370 -360 -676
-669 -783 -790 -117 -133 -450 -460 -883 -870 -368 -347 -489 -459 -800 -731
-52 -46 -106 -93 -119 -104 -14 -11 -32 -27 -40 -35 -9 -8 -41 -35 -71 -60
-30 -25 -57 -47 -60 -50 -13 -13 -129 -109 -276 -226 -218 -175 -234 -188
-252 -198 -24 -14 -60 -45 -152 -131 -106 -100 -95 -90 -170 -155 -35 -30 -68
-60 -74 -65 -60 -56 -575 -465 -680 -540 -16 -11 -40 -29 -55 -41 -14 -11 -69
-51 -121 -89 -52 -38 -99 -73 -105 -77 -5 -5 -39 -30 -75 -55 -36 -26 -96 -70
-135 -98 -78 -58 -649 -460 -765 -540 -41 -28 -104 -72 -140 -97 -49 -34 -608
-421 -855 -592 -245 -170 -325 -237 -430 -361 -33 -38 -69 -81 -81 -95 -194
-221 -420 -527 -550 -746 l-58 -97 -2 -96 c-4 -179 47 -309 214 -543 53 -75
133 -190 177 -255 288 -423 504 -655 782 -838 362 -240 683 -407 1039 -540
440 -165 698 -157 989 30 66 43 206 118 225 120 17 3 421 215 601 316 197 110
164 91 374 217 278 167 380 232 635 402 96 63 493 345 575 407 6 5 55 42 110
83 190 143 651 512 741 595 6 5 35 30 64 55 30 25 61 52 70 60 9 8 34 30 55
49 138 118 213 188 403 376 408 402 639 626 853 826 20 19 88 82 150 140 132
122 139 129 250 229 73 66 144 130 199 180 9 8 54 49 101 90 46 41 86 77 89
80 3 3 39 34 80 70 41 36 77 67 80 70 3 3 37 32 75 65 39 33 75 64 81 70 6 5
35 30 64 54 29 25 58 50 64 56 6 5 38 33 71 60 33 28 62 52 65 56 5 5 387 322
446 369 66 54 480 385 492 395 27 21 45 43 124 150 45 61 93 124 107 140 14
17 42 51 61 75 19 24 40 48 45 54 6 6 32 38 59 71 27 33 54 65 60 70 9 8 57
64 245 290 102 122 295 389 496 685 128 189 299 509 320 600 2 8 14 42 26 75
19 53 21 73 15 170 -6 121 -23 228 -55 350 -12 44 -23 87 -25 95 -24 99 -177
437 -267 587 -84 143 -232 360 -328 483 -49 63 -123 162 -163 219 -66 95 -196
238 -273 302 -16 13 -59 44 -95 68 -36 24 -78 53 -93 64 -68 45 -283 140 -417
183 -80 26 -173 57 -208 71 -34 13 -86 28 -115 33 -54 9 -145 18 -149 15z
m180 -846 c68 -22 125 -39 127 -39 1 0 24 -28 51 -62 42 -54 307 -364 323
-378 9 -7 79 -87 141 -160 30 -35 71 -83 90 -105 144 -163 316 -398 392 -535
29 -52 53 -97 54 -100 0 -3 10 -26 22 -52 36 -80 45 -128 38 -202 -12 -128
-84 -305 -189 -464 -75 -112 -137 -181 -262 -288 -49 -42 -92 -80 -95 -83 -3
-3 -34 -31 -70 -61 -36 -30 -67 -57 -70 -60 -5 -5 -38 -34 -170 -150 -40 -36
-83 -74 -96 -85 -12 -11 -48 -42 -80 -70 -32 -27 -68 -59 -80 -70 -12 -11 -52
-47 -90 -80 -157 -139 -366 -325 -459 -409 -306 -274 -391 -352 -450 -407 -22
-21 -51 -47 -64 -58 -21 -18 -180 -164 -235 -216 -12 -11 -82 -76 -156 -145
-154 -143 -133 -123 -321 -302 -263 -250 -301 -287 -759 -742 -475 -472 -661
-649 -923 -881 -38 -33 -83 -73 -101 -90 -18 -16 -59 -52 -92 -80 -32 -27 -81
-70 -109 -95 -27 -25 -104 -90 -170 -145 -66 -55 -122 -102 -125 -105 -6 -7
-272 -224 -324 -265 -21 -16 -44 -35 -50 -40 -9 -9 -132 -105 -161 -127 -5 -4
-28 -23 -51 -40 -22 -18 -56 -44 -74 -58 -18 -14 -65 -50 -104 -81 -343 -269
-1131 -836 -1484 -1068 -838 -551 -752 -498 -797 -490 -22 5 -51 11 -65 14
-14 3 -34 7 -45 9 -106 21 -304 82 -437 135 -97 38 -357 170 -378 191 -9 9
-101 70 -105 70 -3 0 -13 6 -22 14 -10 8 -56 45 -103 83 -91 72 -254 233 -317
311 -21 26 -46 56 -56 66 -45 51 -237 336 -237 353 0 3 -8 17 -19 31 -10 15
-37 64 -61 110 -42 82 -42 83 -24 110 32 50 266 274 394 378 19 16 37 32 40
35 5 7 174 147 250 209 24 19 58 47 75 61 51 44 429 346 630 504 105 82 192
152 195 155 3 3 21 17 40 30 19 13 37 27 40 30 3 3 79 64 170 135 199 155 360
282 380 298 8 7 155 122 325 257 171 134 312 247 315 250 3 3 86 70 185 150
99 79 256 207 350 285 93 77 181 149 194 160 14 11 32 27 41 35 9 8 43 37 75
65 65 54 300 259 326 284 68 67 131 121 239 205 199 154 346 271 400 315 19
16 96 77 170 137 143 115 581 478 640 530 19 18 91 81 160 140 154 133 413
365 535 479 256 239 362 342 615 595 324 324 469 476 721 754 24 27 87 84 139
126 103 84 106 87 218 187 41 37 83 75 92 83 9 8 62 56 116 106 54 50 115 106
134 123 181 166 451 348 495 334 11 -3 76 -23 143 -44z"/>
<path d="M10630 19347 c-77 -37 -506 -489 -812 -858 -20 -24 -65 -78 -99 -119
-78 -93 -404 -503 -469 -589 -314 -416 -328 -433 -500 -616 -117 -124 -1192
-1198 -1426 -1425 -254 -245 -598 -577 -655 -631 -25 -24 -125 -120 -223 -213
-97 -93 -193 -185 -214 -204 -20 -19 -102 -97 -182 -172 -80 -76 -161 -152
-180 -170 -19 -18 -93 -87 -164 -154 -175 -164 -194 -182 -315 -294 -58 -53
-137 -127 -176 -163 -38 -36 -94 -87 -124 -115 -30 -27 -62 -56 -71 -64 -14
-13 -149 -136 -215 -195 -12 -11 -55 -49 -95 -85 -40 -36 -83 -74 -96 -85 -56
-51 -88 -78 -209 -179 -71 -60 -141 -118 -155 -130 -14 -11 -50 -41 -80 -66
-30 -25 -60 -49 -66 -55 -6 -5 -32 -28 -59 -50 -164 -136 -534 -456 -635 -551
-25 -23 -74 -68 -110 -100 -36 -32 -182 -176 -326 -319 -254 -254 -439 -455
-618 -671 l-25 -31 20 -79 c69 -276 199 -594 344 -839 25 -42 45 -78 45 -81 0
-12 193 -286 271 -384 80 -101 108 -127 223 -211 276 -202 485 -334 714 -449
153 -77 349 -160 396 -166 45 -7 386 -7 421 -1 17 3 50 8 75 12 73 10 231 45
280 62 143 50 319 130 382 174 14 11 29 19 33 19 43 0 1315 985 1725 1337 14
11 88 74 165 140 174 146 171 144 198 169 12 11 56 49 97 85 41 35 80 69 86
74 18 17 137 122 164 145 14 12 63 57 110 100 47 43 96 88 110 100 14 12 77
70 140 128 106 99 159 149 330 312 119 114 553 546 705 702 157 162 374 392
504 534 91 100 147 161 191 209 75 82 320 363 405 465 44 52 90 106 102 120
18 21 63 75 172 205 9 11 59 72 111 135 116 141 415 502 510 615 23 28 49 59
59 70 28 35 125 149 138 163 7 7 48 57 90 110 42 53 100 126 128 162 224 281
560 775 812 1195 136 227 155 260 303 526 l87 157 -2 91 c-3 88 -11 172 -20
222 -3 13 -7 41 -10 64 -39 264 -177 576 -361 812 -110 140 -231 257 -410 395
-60 46 -171 132 -247 191 -365 284 -554 396 -781 461 -49 15 -104 28 -122 31
-73 11 -101 16 -164 29 -96 20 -177 18 -230 -7z m297 -842 c355 -129 731 -393
973 -685 129 -156 226 -344 266 -519 3 -14 8 -76 10 -137 l4 -112 -107 -153
c-168 -244 -563 -792 -583 -809 -3 -3 -30 -39 -60 -80 -30 -41 -60 -82 -67
-90 -6 -8 -60 -78 -119 -155 -59 -77 -148 -192 -198 -255 -50 -63 -96 -122
-103 -130 -14 -18 -152 -190 -196 -244 -88 -109 -242 -296 -279 -338 -9 -10
-31 -37 -50 -60 -18 -23 -38 -46 -43 -52 -6 -6 -35 -40 -64 -75 -29 -35 -58
-70 -64 -76 -7 -6 -32 -36 -57 -65 -48 -58 -168 -198 -185 -216 -5 -6 -37 -42
-70 -80 -75 -85 -315 -355 -330 -370 -5 -6 -38 -42 -71 -80 -81 -90 -104 -116
-389 -423 -127 -138 -778 -793 -1026 -1033 -321 -310 -490 -469 -746 -704 -53
-49 -101 -94 -107 -99 -6 -6 -72 -64 -146 -130 -74 -66 -151 -134 -170 -152
-78 -71 -288 -250 -539 -462 -28 -24 -102 -84 -164 -133 -61 -50 -129 -104
-150 -121 -21 -16 -86 -68 -145 -114 -59 -46 -114 -89 -122 -96 -168 -138
-960 -701 -1012 -720 -25 -9 -268 55 -388 102 -357 142 -630 360 -957 765 -70
86 -205 299 -312 490 -68 122 -71 130 -54 145 10 9 81 63 158 120 77 58 142
107 145 110 3 3 32 26 65 50 68 51 609 467 640 492 11 10 88 70 170 136 83 65
159 125 170 135 11 9 92 74 180 144 88 71 169 136 180 146 11 9 76 63 145 119
69 56 141 116 161 133 20 17 47 40 60 50 29 23 64 53 384 326 138 117 264 224
280 238 17 14 46 39 66 56 19 17 57 49 83 71 26 22 65 56 86 75 21 19 60 54
86 76 68 58 191 168 283 253 14 13 64 58 110 100 46 42 99 90 116 106 18 17
83 77 145 135 62 58 127 118 144 134 17 16 84 79 150 140 65 61 130 122 145
135 14 13 88 83 165 155 76 72 147 138 157 147 16 14 147 136 289 269 63 59
235 216 254 233 215 184 598 576 856 877 62 72 104 122 155 183 67 80 371 461
400 501 11 16 25 33 30 40 11 12 145 184 311 401 55 72 175 229 266 350 392
520 664 865 683 865 2 0 48 -16 102 -35z"/>
<path d="M1697 17654 c-1 -1 -60 -4 -132 -8 -71 -3 -152 -9 -180 -12 -125 -14
-276 -36 -345 -50 -41 -9 -86 -18 -100 -20 -99 -19 -336 -91 -431 -132 -44
-19 -47 -23 -82 -114 -19 -52 -39 -108 -43 -124 -4 -16 -9 -33 -13 -39 -3 -5
-7 -14 -8 -20 -1 -5 -18 -71 -38 -145 -19 -74 -38 -148 -41 -165 -3 -16 -10
-50 -15 -75 -6 -25 -13 -56 -15 -70 -2 -14 -6 -34 -9 -46 -3 -12 -7 -39 -10
-60 -3 -21 -10 -61 -15 -89 -5 -27 -12 -68 -15 -90 -3 -22 -7 -51 -10 -65 -6
-39 -25 -180 -30 -235 -3 -27 -8 -61 -10 -75 -3 -14 -7 -50 -10 -81 -3 -31 -7
-65 -9 -76 -3 -11 -7 -56 -11 -99 -4 -43 -11 -104 -15 -134 -4 -30 -6 -147 -5
-260 3 -198 5 -226 20 -321 3 -24 9 -57 11 -74 19 -117 57 -249 116 -404 l40
-103 73 -33 c289 -132 598 -228 955 -295 58 -11 122 -23 144 -25 21 -3 41 -7
45 -9 3 -2 33 -7 66 -10 33 -4 69 -9 80 -12 11 -2 40 -6 65 -8 25 -3 83 -9
130 -15 47 -5 114 -13 150 -17 36 -3 72 -7 80 -9 56 -10 369 -25 885 -41 152
-4 727 -4 800 1 137 8 250 17 265 20 9 2 47 6 85 10 38 3 72 8 75 10 3 1 28 6
55 9 71 10 192 41 320 83 130 42 159 67 222 189 53 102 84 191 123 350 33 132
34 140 45 209 3 22 10 65 15 95 17 92 18 100 40 260 11 85 23 166 25 180 23
131 23 646 0 835 -3 22 -7 60 -10 85 -16 129 -56 322 -97 465 -25 89 -97 275
-106 275 -4 0 -20 13 -37 28 -52 48 -185 133 -294 188 -202 100 -473 180 -756
224 -38 6 -81 13 -95 15 -14 2 -50 6 -80 10 -30 3 -71 8 -90 10 -32 4 -103 10
-220 20 -25 2 -97 6 -160 10 -136 7 -257 15 -281 20 -10 2 -49 6 -86 10 -37 3
-84 8 -103 10 -19 2 -66 7 -105 10 -38 4 -88 8 -110 10 -136 12 -698 27 -708
19z m113 -788 c354 -8 436 -11 835 -31 113 -6 439 -29 545 -40 77 -7 177 -17
217 -20 43 -4 78 -8 218 -25 44 -5 107 -12 140 -15 33 -3 69 -8 81 -10 25 -6
76 -13 124 -19 19 -2 73 -10 120 -16 47 -7 90 -13 96 -13 12 0 18 -35 29 -147
3 -30 8 -65 10 -76 20 -90 28 -703 12 -869 -8 -86 -10 -104 -32 -270 -24 -176
-123 -534 -160 -573 -35 -38 -841 -36 -1264 3 -24 3 -75 7 -115 10 -39 3 -116
10 -171 16 -99 10 -122 12 -220 24 -27 3 -66 8 -85 10 -56 6 -133 17 -155 21
-10 2 -35 6 -55 8 -120 17 -126 18 -190 31 -14 3 -41 7 -60 9 -55 7 -255 47
-385 77 -44 11 -89 21 -100 23 -108 24 -380 110 -402 128 -11 9 -13 78 -9 352
2 187 6 350 9 361 3 11 8 58 12 105 4 47 8 87 10 90 2 3 6 30 10 60 5 43 36
213 49 275 1 6 8 37 15 70 15 69 43 175 77 290 38 130 48 160 55 165 9 6 325
4 739 -4z"/>
</g>
</svg>
